<mxfile host="app.diagrams.net" modified="2022-08-11T17:45:48.851Z" agent="5.0 (Windows NT 10.0; Win64; x64) AppleWebKit/537.36 (KHTML, like Gecko) Chrome/104.0.0.0 Safari/537.36" etag="VN042caDT8WOndgKlhob" version="20.2.3" type="github">
  <diagram id="C5RBs43oDa-KdzZeNtuy" name="Page-1">
    <mxGraphModel dx="868" dy="442" grid="1" gridSize="10" guides="1" tooltips="1" connect="1" arrows="1" fold="1" page="1" pageScale="1" pageWidth="827" pageHeight="1169" math="0" shadow="0">
      <root>
        <mxCell id="WIyWlLk6GJQsqaUBKTNV-0" />
        <mxCell id="WIyWlLk6GJQsqaUBKTNV-1" parent="WIyWlLk6GJQsqaUBKTNV-0" />
        <mxCell id="ORszkjj28Np6Vzrw5HVF-0" style="edgeStyle=orthogonalEdgeStyle;rounded=0;orthogonalLoop=1;jettySize=auto;html=1;" edge="1" parent="WIyWlLk6GJQsqaUBKTNV-1" source="ORszkjj28Np6Vzrw5HVF-1" target="ORszkjj28Np6Vzrw5HVF-5">
          <mxGeometry relative="1" as="geometry" />
        </mxCell>
        <mxCell id="ORszkjj28Np6Vzrw5HVF-1" value="INICIO" style="rounded=1;whiteSpace=wrap;html=1;arcSize=50;" vertex="1" parent="WIyWlLk6GJQsqaUBKTNV-1">
          <mxGeometry x="330" y="80" width="120" height="50" as="geometry" />
        </mxCell>
        <mxCell id="ORszkjj28Np6Vzrw5HVF-2" style="edgeStyle=orthogonalEdgeStyle;rounded=0;orthogonalLoop=1;jettySize=auto;html=1;" edge="1" parent="WIyWlLk6GJQsqaUBKTNV-1" source="ORszkjj28Np6Vzrw5HVF-3" target="ORszkjj28Np6Vzrw5HVF-9">
          <mxGeometry relative="1" as="geometry" />
        </mxCell>
        <mxCell id="ORszkjj28Np6Vzrw5HVF-3" value="n" style="shape=parallelogram;perimeter=parallelogramPerimeter;whiteSpace=wrap;html=1;fixedSize=1;" vertex="1" parent="WIyWlLk6GJQsqaUBKTNV-1">
          <mxGeometry x="330" y="390" width="120" height="60" as="geometry" />
        </mxCell>
        <mxCell id="ORszkjj28Np6Vzrw5HVF-4" style="edgeStyle=orthogonalEdgeStyle;rounded=0;orthogonalLoop=1;jettySize=auto;html=1;" edge="1" parent="WIyWlLk6GJQsqaUBKTNV-1" source="ORszkjj28Np6Vzrw5HVF-5" target="ORszkjj28Np6Vzrw5HVF-7">
          <mxGeometry relative="1" as="geometry" />
        </mxCell>
        <mxCell id="ORszkjj28Np6Vzrw5HVF-5" value="int n;&lt;br&gt;int a;&lt;br&gt;int b;&lt;br&gt;int c;" style="rounded=0;whiteSpace=wrap;html=1;" vertex="1" parent="WIyWlLk6GJQsqaUBKTNV-1">
          <mxGeometry x="330" y="180" width="120" height="60" as="geometry" />
        </mxCell>
        <mxCell id="ORszkjj28Np6Vzrw5HVF-6" style="edgeStyle=orthogonalEdgeStyle;rounded=0;orthogonalLoop=1;jettySize=auto;html=1;" edge="1" parent="WIyWlLk6GJQsqaUBKTNV-1" source="ORszkjj28Np6Vzrw5HVF-7" target="ORszkjj28Np6Vzrw5HVF-3">
          <mxGeometry relative="1" as="geometry" />
        </mxCell>
        <mxCell id="ORszkjj28Np6Vzrw5HVF-7" value="&quot;Ingrese el Numero&quot;" style="shape=document;whiteSpace=wrap;html=1;boundedLbl=1;" vertex="1" parent="WIyWlLk6GJQsqaUBKTNV-1">
          <mxGeometry x="330" y="280" width="120" height="80" as="geometry" />
        </mxCell>
        <mxCell id="ORszkjj28Np6Vzrw5HVF-8" style="edgeStyle=orthogonalEdgeStyle;rounded=0;orthogonalLoop=1;jettySize=auto;html=1;" edge="1" parent="WIyWlLk6GJQsqaUBKTNV-1" source="ORszkjj28Np6Vzrw5HVF-9" target="ORszkjj28Np6Vzrw5HVF-11">
          <mxGeometry relative="1" as="geometry" />
        </mxCell>
        <mxCell id="ORszkjj28Np6Vzrw5HVF-9" value="a = 0;&lt;br&gt;b = 0;&lt;br&gt;c = 0;" style="rounded=0;whiteSpace=wrap;html=1;" vertex="1" parent="WIyWlLk6GJQsqaUBKTNV-1">
          <mxGeometry x="330" y="490" width="120" height="60" as="geometry" />
        </mxCell>
        <mxCell id="ORszkjj28Np6Vzrw5HVF-10" style="edgeStyle=orthogonalEdgeStyle;rounded=0;orthogonalLoop=1;jettySize=auto;html=1;" edge="1" parent="WIyWlLk6GJQsqaUBKTNV-1" source="ORszkjj28Np6Vzrw5HVF-11" target="ORszkjj28Np6Vzrw5HVF-18">
          <mxGeometry relative="1" as="geometry" />
        </mxCell>
        <mxCell id="ORszkjj28Np6Vzrw5HVF-11" value="c" style="shape=document;whiteSpace=wrap;html=1;boundedLbl=1;" vertex="1" parent="WIyWlLk6GJQsqaUBKTNV-1">
          <mxGeometry x="330" y="580" width="120" height="80" as="geometry" />
        </mxCell>
        <mxCell id="ORszkjj28Np6Vzrw5HVF-12" value="V" style="edgeStyle=orthogonalEdgeStyle;rounded=0;orthogonalLoop=1;jettySize=auto;html=1;entryX=0;entryY=0.5;entryDx=0;entryDy=0;" edge="1" parent="WIyWlLk6GJQsqaUBKTNV-1" source="ORszkjj28Np6Vzrw5HVF-14" target="ORszkjj28Np6Vzrw5HVF-20">
          <mxGeometry relative="1" as="geometry" />
        </mxCell>
        <mxCell id="ORszkjj28Np6Vzrw5HVF-13" value="V" style="edgeStyle=orthogonalEdgeStyle;rounded=0;orthogonalLoop=1;jettySize=auto;html=1;entryX=0.5;entryY=0;entryDx=0;entryDy=0;" edge="1" parent="WIyWlLk6GJQsqaUBKTNV-1" source="ORszkjj28Np6Vzrw5HVF-14" target="ORszkjj28Np6Vzrw5HVF-23">
          <mxGeometry relative="1" as="geometry">
            <mxPoint x="390" y="1070" as="targetPoint" />
          </mxGeometry>
        </mxCell>
        <mxCell id="ORszkjj28Np6Vzrw5HVF-14" value="c&amp;lt;n" style="rhombus;whiteSpace=wrap;html=1;container=1;" vertex="1" parent="WIyWlLk6GJQsqaUBKTNV-1">
          <mxGeometry x="350" y="890" width="80" height="80" as="geometry" />
        </mxCell>
        <mxCell id="ORszkjj28Np6Vzrw5HVF-15" style="edgeStyle=orthogonalEdgeStyle;rounded=0;orthogonalLoop=1;jettySize=auto;html=1;entryX=1;entryY=0.5;entryDx=0;entryDy=0;" edge="1" parent="WIyWlLk6GJQsqaUBKTNV-1" source="ORszkjj28Np6Vzrw5HVF-16" target="ORszkjj28Np6Vzrw5HVF-22">
          <mxGeometry relative="1" as="geometry">
            <Array as="points">
              <mxPoint x="710" y="1030" />
              <mxPoint x="710" y="820" />
            </Array>
          </mxGeometry>
        </mxCell>
        <mxCell id="ORszkjj28Np6Vzrw5HVF-16" value="a = b;&lt;br&gt;b = c;&lt;br&gt;c = a + b;" style="rounded=0;whiteSpace=wrap;html=1;" vertex="1" parent="WIyWlLk6GJQsqaUBKTNV-1">
          <mxGeometry x="540" y="1000" width="120" height="60" as="geometry" />
        </mxCell>
        <mxCell id="ORszkjj28Np6Vzrw5HVF-17" style="edgeStyle=orthogonalEdgeStyle;rounded=0;orthogonalLoop=1;jettySize=auto;html=1;" edge="1" parent="WIyWlLk6GJQsqaUBKTNV-1" source="ORszkjj28Np6Vzrw5HVF-18" target="ORszkjj28Np6Vzrw5HVF-22">
          <mxGeometry relative="1" as="geometry" />
        </mxCell>
        <mxCell id="ORszkjj28Np6Vzrw5HVF-18" value="c = 1" style="rounded=0;whiteSpace=wrap;html=1;" vertex="1" parent="WIyWlLk6GJQsqaUBKTNV-1">
          <mxGeometry x="330" y="710" width="120" height="60" as="geometry" />
        </mxCell>
        <mxCell id="ORszkjj28Np6Vzrw5HVF-19" style="edgeStyle=orthogonalEdgeStyle;rounded=0;orthogonalLoop=1;jettySize=auto;html=1;" edge="1" parent="WIyWlLk6GJQsqaUBKTNV-1" source="ORszkjj28Np6Vzrw5HVF-20" target="ORszkjj28Np6Vzrw5HVF-16">
          <mxGeometry relative="1" as="geometry" />
        </mxCell>
        <mxCell id="ORszkjj28Np6Vzrw5HVF-20" value="c" style="shape=document;whiteSpace=wrap;html=1;boundedLbl=1;" vertex="1" parent="WIyWlLk6GJQsqaUBKTNV-1">
          <mxGeometry x="540" y="890" width="120" height="80" as="geometry" />
        </mxCell>
        <mxCell id="ORszkjj28Np6Vzrw5HVF-21" style="edgeStyle=orthogonalEdgeStyle;rounded=0;orthogonalLoop=1;jettySize=auto;html=1;" edge="1" parent="WIyWlLk6GJQsqaUBKTNV-1" source="ORszkjj28Np6Vzrw5HVF-22" target="ORszkjj28Np6Vzrw5HVF-14">
          <mxGeometry relative="1" as="geometry" />
        </mxCell>
        <mxCell id="ORszkjj28Np6Vzrw5HVF-22" value="" style="ellipse;whiteSpace=wrap;html=1;aspect=fixed;" vertex="1" parent="WIyWlLk6GJQsqaUBKTNV-1">
          <mxGeometry x="370" y="800" width="40" height="40" as="geometry" />
        </mxCell>
        <mxCell id="ORszkjj28Np6Vzrw5HVF-23" value="FIN" style="rounded=1;whiteSpace=wrap;html=1;arcSize=50;" vertex="1" parent="WIyWlLk6GJQsqaUBKTNV-1">
          <mxGeometry x="330" y="1080" width="120" height="50" as="geometry" />
        </mxCell>
      </root>
    </mxGraphModel>
  </diagram>
</mxfile>
